<?xml version="1.0" standalone="no"?>
<!DOCTYPE svg PUBLIC "-//W3C//DTD SVG 20010904//EN"
 "http://www.w3.org/TR/2001/REC-SVG-20010904/DTD/svg10.dtd">
<svg version="1.0" xmlns="http://www.w3.org/2000/svg"
 width="512.000000pt" height="512.000000pt" viewBox="0 0 512.000000 512.000000"
 preserveAspectRatio="xMidYMid meet">

<g transform="translate(0.000000,512.000000) scale(0.100000,-0.100000)"
fill="#000000" stroke="none">
<path d="M3020 4570 c-490 -39 -965 -230 -1398 -561 -126 -97 -1177 -1137
-1248 -1235 -61 -85 -129 -233 -156 -340 -22 -86 -23 -102 -23 -569 0 -467 1
-483 23 -569 25 -98 91 -246 143 -322 53 -78 174 -198 255 -254 331 -229 774
-233 1105 -9 78 52 198 166 247 234 153 213 292 321 495 384 137 42 192 43
752 12 570 -31 639 -30 808 13 442 112 772 458 883 923 22 90 32 914 14 1063
-40 318 -198 595 -456 800 -392 311 -928 471 -1444 430z m325 -141 c406 -35
794 -194 1088 -446 233 -199 370 -524 353 -838 -14 -267 -109 -492 -288 -680
-140 -147 -298 -244 -493 -301 -136 -39 -288 -41 -845 -9 -495 28 -547 27
-696 -10 -229 -58 -424 -192 -569 -391 -115 -157 -223 -251 -368 -320 -122
-57 -183 -69 -357 -69 -135 0 -165 3 -230 23 -147 47 -268 121 -371 228 -78
83 -121 144 -160 229 -126 278 -99 580 74 840 55 84 1041 1068 1177 1175 430
341 904 538 1366 569 173 12 187 12 319 0z m1442 -1941 c-7 -167 -39 -295
-106 -433 -149 -305 -417 -510 -756 -580 -110 -23 -247 -21 -783 10 -478 27
-532 26 -681 -11 -216 -54 -416 -192 -560 -384 -101 -134 -115 -151 -187 -209
-95 -77 -161 -114 -270 -150 -402 -135 -835 45 -1028 426 -55 109 -78 215 -83
383 l-5 155 49 -70 c54 -76 163 -183 237 -235 75 -51 194 -107 291 -136 121
-36 330 -45 454 -20 266 54 456 180 640 426 169 224 378 348 636 375 33 3 269
-6 525 -20 555 -32 716 -30 860 8 129 35 206 68 330 140 85 50 127 84 220 177
77 77 132 143 165 197 28 45 52 82 54 83 2 0 1 -60 -2 -132z"/>
<path d="M3085 4333 c-384 -23 -740 -140 -1090 -356 -214 -133 -291 -201 -858
-766 -569 -567 -605 -607 -656 -738 -37 -94 -54 -209 -48 -313 12 -189 83
-347 217 -480 96 -96 178 -148 295 -187 73 -25 94 -27 230 -27 136 0 157 2
230 27 155 52 279 145 384 287 30 41 78 101 105 134 138 160 374 295 595 340
131 28 213 28 681 1 526 -30 680 -29 805 5 160 44 297 122 423 244 403 388
383 1055 -43 1414 -276 234 -632 379 -1010 411 -116 10 -152 11 -260 4z m385
-159 c267 -46 503 -145 722 -304 344 -249 453 -675 269 -1044 -102 -204 -263
-344 -481 -417 -134 -45 -235 -47 -810 -14 -398 22 -492 25 -580 16 -361 -38
-665 -215 -895 -523 -107 -144 -182 -205 -313 -255 -53 -20 -91 -27 -177 -31
-127 -5 -198 9 -304 60 -95 46 -216 169 -265 268 -89 183 -86 376 10 563 34
66 83 118 558 593 287 286 559 551 606 588 377 299 810 482 1221 516 128 10
326 3 439 -16z"/>
<path d="M3543 3719 c-64 -25 -131 -88 -163 -154 -21 -41 -25 -65 -25 -135 0
-72 4 -92 27 -136 32 -60 94 -119 157 -147 71 -32 179 -30 253 6 111 54 172
152 172 277 1 99 -27 163 -101 230 -87 79 -209 102 -320 59z m203 -144 c46
-27 84 -90 84 -141 0 -36 -30 -103 -56 -126 -140 -124 -349 35 -264 202 18 36
55 70 90 83 38 14 105 6 146 -18z"/>
<path d="M3042 1718 c-40 -20 -42 -97 -3 -117 10 -6 96 -15 191 -21 191 -12
211 -8 224 46 12 48 -20 78 -90 85 -133 14 -299 18 -322 7z"/>
</g>
</svg>
